<svg width="16" height="16" viewBox="0 0 40 40" fill="none" xmlns="http://www.w3.org/2000/svg">
    <path d="M20 38C29.9411 38 38 29.9411 38 20C38 10.0589 29.9411 2 20 2C10.0589 2 2 10.0589 2 20C2 29.9411 10.0589 38 20 38Z" fill="#327FA3"/>
    <path d="M11.4886 10.3314V29.6943C11.4886 30.1314 11.8486 30.4914 12.2858 30.4914H24.0886V26.8914C24.0886 26.4543 24.4486 26.0943 24.8858 26.0943H28.4858V10.3314C28.4858 9.89426 28.1258 9.53426 27.6886 9.53426H12.2858C11.8486 9.50854 11.4886 9.86854 11.4886 10.3314Z" fill="white"/>
    <path d="M24.0885 30.4913L28.5114 26.0685H24.9114C24.4742 26.0685 24.1142 26.4285 24.1142 26.8656V30.4913H24.0885V30.4913Z" fill="#E6E9EE"/>
    <path d="M15.8343 12.1571H13.4429V14.5485H15.8343V12.1571Z" fill="#4CDBC4"/>
    <path d="M15.8343 16.22H13.4429V18.6114H15.8343V16.22Z" fill="#FF7058"/>
    <path d="M15.8343 20.2828H13.4429V22.6743H15.8343V20.2828Z" fill="#4CDBC4"/>
    <path d="M26.5572 12.1571H16.9143V12.8257H26.5572V12.1571Z" fill="#E6E9EE"/>
    <path d="M22.9829 13.88H16.9143V14.5486H22.9829V13.88Z" fill="#E6E9EE"/>
    <path d="M26.5572 16.22H16.9143V16.8885H26.5572V16.22Z" fill="#E6E9EE"/>
    <path d="M22.9829 17.9429H16.9143V18.6114H22.9829V17.9429Z" fill="#E6E9EE"/>
    <path d="M26.5572 20.2828H16.9143V20.9514H26.5572V20.2828Z" fill="#E6E9EE"/>
    <path d="M22.9829 22.0057H16.9143V22.6743H22.9829V22.0057Z" fill="#E6E9EE"/>
</svg>
